<?xml version="1.0" encoding="UTF-8" standalone="no"?>
<svg
   xmlns:dc="http://purl.org/dc/elements/1.1/"
   xmlns:cc="http://creativecommons.org/ns#"
   xmlns:rdf="http://www.w3.org/1999/02/22-rdf-syntax-ns#"
   xmlns:svg="http://www.w3.org/2000/svg"
   xmlns="http://www.w3.org/2000/svg"
   xmlns:sodipodi="http://sodipodi.sourceforge.net/DTD/sodipodi-0.dtd"
   xmlns:inkscape="http://www.inkscape.org/namespaces/inkscape"
   width="250mm"
   height="300mm"
   viewBox="0 0 250 300"
   version="1.1"
   id="svg8"
   inkscape:version="1.0 (4035a4fb49, 2020-05-01)"
   sodipodi:docname="vježba2.svg">
  <defs
     id="defs2">
    <rect
       id="rect991"
       height="99.999999"
       width="0"
       y="137"
       x="20" />
    <rect
       id="rect985"
       height="20"
       width="20"
       y="197"
       x="180" />
    <rect
       id="rect979"
       height="79.999999"
       width="160"
       y="137"
       x="20" />
    <rect
       id="rect973"
       height="79.999999"
       width="160"
       y="137"
       x="20" />
    <rect
       id="rect967"
       height="20"
       width="1.9255708e-12"
       y="127"
       x="20" />
    <clipPath
       id="clipPath1009"
       clipPathUnits="userSpaceOnUse">
      <g
         style="font-size:105.833px;line-height:1.25;font-family:'Showcard Gothic';-inkscape-font-specification:'Showcard Gothic';stroke-width:0.264583"
         id="g1013"
         aria-label="dM">
        <path
           d="m 178.82484,57.340582 c -0.48231,7.234678 -1.18856,20.429352 -2.11873,39.584022 -0.48231,11.782186 -0.84405,25.045766 -1.0852,39.790726 H 156.9141 l -0.51676,-24.33952 -18.24173,26.25154 -19.68866,-26.04484 -0.51676,24.13282 H 99.346734 C 99.105578,128.82609 98.640492,115.49361 97.951475,96.717899 97.469163,85.900334 96.590666,72.774561 95.315985,57.340582 h 29.610505 c 1.03353,2.514912 2.80774,6.580112 5.32265,12.1956 1.92925,3.996298 4.56474,8.716064 7.90647,14.159297 1.48139,-2.342657 4.203,-7.183001 8.16485,-14.521031 1.41249,-2.721617 1.47469,-7.006817 3.67954,-12.174443 z m -87.539607,40.30749 c 0,12.436758 -3.858495,22.220798 -11.575485,29.352118 -7.958145,7.40693 -19.171896,11.1104 -33.641251,11.1104 -9.301729,0 -16.48473,-0.46509 -21.549005,-1.39526 L 23.124233,98.319864 C 22.676372,88.466922 21.171328,74.328781 20,57.000005 c 7.475834,-1.067976 15.974399,-1.054682 24.104798,-1.054682 14.503807,0 25.855361,3.376183 34.054662,10.128548 8.750515,7.234678 13.125773,17.759412 13.125773,31.574201 z m -21.187271,6.356178 c 0,-5.064272 -1.636415,-8.802188 -4.909246,-11.213747 -2.721617,-1.998149 -6.201152,-2.911097 -10.438606,-2.738842 l -0.723468,32.401019 c 4.409709,-0.27561 8.009822,-1.70532 10.800341,-4.28913 3.513986,-3.20393 5.270979,-7.92369 5.270979,-14.1593 z"
           style="stroke-width:0.264583"
           id="path1011" />
      </g>
    </clipPath>
    <clipPath
       id="clipPath1015"
       clipPathUnits="userSpaceOnUse">
      <g
         style="font-size:105.833px;line-height:1.25;font-family:'Showcard Gothic';-inkscape-font-specification:'Showcard Gothic';stroke-width:0.264583"
         id="g1019"
         aria-label="dM">
        <path
           d="m 178.82484,57.340582 c -0.48231,7.234678 -1.18856,20.429352 -2.11873,39.584022 -0.48231,11.782186 -0.84405,25.045766 -1.0852,39.790726 H 156.9141 l -0.51676,-24.33952 -18.24173,26.25154 -19.68866,-26.04484 -0.51676,24.13282 H 99.346734 C 99.105578,128.82609 98.640492,115.49361 97.951475,96.717899 97.469163,85.900334 96.590666,72.774561 95.315985,57.340582 h 29.610505 c 1.03353,2.514912 2.80774,6.580112 5.32265,12.1956 1.92925,3.996298 4.56474,8.716064 7.90647,14.159297 1.48139,-2.342657 4.203,-7.183001 8.16485,-14.521031 1.41249,-2.721617 1.47469,-7.006817 3.67954,-12.174443 z m -87.539607,40.30749 c 0,12.436758 -3.858495,22.220798 -11.575485,29.352118 -7.958145,7.40693 -19.171896,11.1104 -33.641251,11.1104 -9.301729,0 -16.48473,-0.46509 -21.549005,-1.39526 L 23.124233,98.319864 C 22.676372,88.466922 21.171328,74.328781 20,57.000005 c 7.475834,-1.067976 15.974399,-1.054682 24.104798,-1.054682 14.503807,0 25.855361,3.376183 34.054662,10.128548 8.750515,7.234678 13.125773,17.759412 13.125773,31.574201 z m -21.187271,6.356178 c 0,-5.064272 -1.636415,-8.802188 -4.909246,-11.213747 -2.721617,-1.998149 -6.201152,-2.911097 -10.438606,-2.738842 l -0.723468,32.401019 c 4.409709,-0.27561 8.009822,-1.70532 10.800341,-4.28913 3.513986,-3.20393 5.270979,-7.92369 5.270979,-14.1593 z"
           style="stroke-width:0.264583"
           id="path1017" />
      </g>
    </clipPath>
    <clipPath
       id="clipPath1021"
       clipPathUnits="userSpaceOnUse">
      <g
         style="font-size:105.833px;line-height:1.25;font-family:'Showcard Gothic';-inkscape-font-specification:'Showcard Gothic';stroke-width:0.264583"
         id="g1025"
         aria-label="dM">
        <path
           d="m 178.82484,57.340582 c -0.48231,7.234678 -1.18856,20.429352 -2.11873,39.584022 -0.48231,11.782186 -0.84405,25.045766 -1.0852,39.790726 H 156.9141 l -0.51676,-24.33952 -18.24173,26.25154 -19.68866,-26.04484 -0.51676,24.13282 H 99.346734 C 99.105578,128.82609 98.640492,115.49361 97.951475,96.717899 97.469163,85.900334 96.590666,72.774561 95.315985,57.340582 h 29.610505 c 1.03353,2.514912 2.80774,6.580112 5.32265,12.1956 1.92925,3.996298 4.56474,8.716064 7.90647,14.159297 1.48139,-2.342657 4.203,-7.183001 8.16485,-14.521031 1.41249,-2.721617 1.47469,-7.006817 3.67954,-12.174443 z m -87.539607,40.30749 c 0,12.436758 -3.858495,22.220798 -11.575485,29.352118 -7.958145,7.40693 -19.171896,11.1104 -33.641251,11.1104 -9.301729,0 -16.48473,-0.46509 -21.549005,-1.39526 L 23.124233,98.319864 C 22.676372,88.466922 21.171328,74.328781 20,57.000005 c 7.475834,-1.067976 15.974399,-1.054682 24.104798,-1.054682 14.503807,0 25.855361,3.376183 34.054662,10.128548 8.750515,7.234678 13.125773,17.759412 13.125773,31.574201 z m -21.187271,6.356178 c 0,-5.064272 -1.636415,-8.802188 -4.909246,-11.213747 -2.721617,-1.998149 -6.201152,-2.911097 -10.438606,-2.738842 l -0.723468,32.401019 c 4.409709,-0.27561 8.009822,-1.70532 10.800341,-4.28913 3.513986,-3.20393 5.270979,-7.92369 5.270979,-14.1593 z"
           style="stroke-width:0.264583"
           id="path1023" />
      </g>
    </clipPath>
  </defs>
  <sodipodi:namedview
     inkscape:window-maximized="1"
     inkscape:window-y="-11"
     inkscape:window-x="-11"
     inkscape:window-height="986"
     inkscape:window-width="1920"
     showgrid="true"
     inkscape:document-rotation="0"
     inkscape:current-layer="layer1"
     inkscape:document-units="mm"
     inkscape:cy="714.4351"
     inkscape:cx="603.75413"
     inkscape:zoom="0.92948555"
     inkscape:pageshadow="2"
     inkscape:pageopacity="0.0"
     borderopacity="1.0"
     bordercolor="#666666"
     pagecolor="#ffffff"
     id="base">
    <inkscape:grid
       empspacing="10"
       spacingy="0.99999999"
       spacingx="0.99999999"
       units="mm"
       id="grid833"
       type="xygrid" />
  </sodipodi:namedview>
  <metadata
     id="metadata5">
    <rdf:RDF>
      <cc:Work
         rdf:about="">
        <dc:format>image/svg+xml</dc:format>
        <dc:type
           rdf:resource="http://purl.org/dc/dcmitype/StillImage" />
        <dc:title />
      </cc:Work>
    </rdf:RDF>
  </metadata>
  <g
     transform="translate(0,3)"
     id="layer1"
     inkscape:label="Sloj 1">
    <path
       clip-path="url(#clipPath1021)"
       style="display:inline;fill:none;stroke:#000000;stroke-width:2.11667;stroke-linecap:butt;stroke-linejoin:miter;stroke-miterlimit:4;stroke-dasharray:none;stroke-opacity:0.5"
       d="M 49.999999,167 C 0,127 0,67.000005 49.999999,27.000005"
       id="path831"
       sodipodi:nodetypes="cc"
       inkscape:label="krivulja1" />
    <path
       clip-path="url(#clipPath1015)"
       style="display:inline;fill:none;stroke:#000000;stroke-width:0.705556;stroke-linecap:butt;stroke-linejoin:miter;stroke-miterlimit:4;stroke-dasharray:none;stroke-opacity:0.8"
       d="M 190,167 C 240,117 89.999999,107 190,27.000006"
       id="path833"
       sodipodi:nodetypes="cc"
       inkscape:label="krivulja2" />
    <g
       clip-path="url(#clipPath1009)"
       style="display:inline"
       inkscape:label="blend"
       id="g919">
      <path
         style="opacity:1;fill:none;stroke:#000000;stroke-width:0.739973;stroke-linecap:butt;stroke-linejoin:miter;stroke-miterlimit:4;stroke-dasharray:none;stroke-opacity:0.792683"
         d="m 186.585,167 c 47.561,-49.756 -98.7801,-60.976 0,-140"
         id="path839" />
      <path
         style="opacity:1;fill:none;stroke:#000000;stroke-width:0.774391;stroke-linecap:butt;stroke-linejoin:miter;stroke-miterlimit:4;stroke-dasharray:none;stroke-opacity:0.785366"
         d="m 183.171,167 c 45.122,-49.512 -97.5612,-61.951 0,-140"
         id="path841" />
      <path
         style="opacity:1;fill:none;stroke:#000000;stroke-width:0.808808;stroke-linecap:butt;stroke-linejoin:miter;stroke-miterlimit:4;stroke-dasharray:none;stroke-opacity:0.778049"
         d="m 179.756,167 c 42.683,-49.268 -96.3414,-62.927 0,-140"
         id="path843" />
      <path
         style="opacity:1;fill:none;stroke:#000000;stroke-width:0.843226;stroke-linecap:butt;stroke-linejoin:miter;stroke-miterlimit:4;stroke-dasharray:none;stroke-opacity:0.770732"
         d="m 176.341,167 c 40.244,-49.024 -95.1215,-63.902 0,-140"
         id="path845" />
      <path
         style="opacity:1;fill:none;stroke:#000000;stroke-width:0.877643;stroke-linecap:butt;stroke-linejoin:miter;stroke-miterlimit:4;stroke-dasharray:none;stroke-opacity:0.763415"
         d="m 172.927,167 c 37.805,-48.78 -93.9026,-64.878 0,-140"
         id="path847" />
      <path
         style="opacity:1;fill:none;stroke:#000000;stroke-width:0.91206;stroke-linecap:butt;stroke-linejoin:miter;stroke-miterlimit:4;stroke-dasharray:none;stroke-opacity:0.756098"
         d="m 169.512,167 c 35.366,-48.537 -92.6827,-65.854 0,-140"
         id="path849" />
      <path
         style="opacity:1;fill:none;stroke:#000000;stroke-width:0.946478;stroke-linecap:butt;stroke-linejoin:miter;stroke-miterlimit:4;stroke-dasharray:none;stroke-opacity:0.74878"
         d="m 166.098,167 c 32.926,-48.293 -91.4639,-66.829 0,-140"
         id="path851" />
      <path
         style="opacity:1;fill:none;stroke:#000000;stroke-width:0.980895;stroke-linecap:butt;stroke-linejoin:miter;stroke-miterlimit:4;stroke-dasharray:none;stroke-opacity:0.741463"
         d="m 162.683,167 c 30.488,-48.049 -90.244,-67.8049 0,-140"
         id="path853" />
      <path
         style="opacity:1;fill:none;stroke:#000000;stroke-width:1.01531;stroke-linecap:butt;stroke-linejoin:miter;stroke-miterlimit:4;stroke-dasharray:none;stroke-opacity:0.734146"
         d="m 159.268,167 c 28.049,-47.805 -89.0241,-68.7805 0,-140"
         id="path855" />
      <path
         style="opacity:1;fill:none;stroke:#000000;stroke-width:1.04973;stroke-linecap:butt;stroke-linejoin:miter;stroke-miterlimit:4;stroke-dasharray:none;stroke-opacity:0.726829"
         d="m 155.854,167 c 25.609,-47.561 -87.8052,-69.7561 0,-140"
         id="path857" />
      <path
         style="opacity:1;fill:none;stroke:#000000;stroke-width:1.08415;stroke-linecap:butt;stroke-linejoin:miter;stroke-miterlimit:4;stroke-dasharray:none;stroke-opacity:0.719512"
         d="m 152.439,167 c 23.171,-47.317 -86.5853,-70.7317 0,-140"
         id="path859" />
      <path
         style="opacity:1;fill:none;stroke:#000000;stroke-width:1.11856;stroke-linecap:butt;stroke-linejoin:miter;stroke-miterlimit:4;stroke-dasharray:none;stroke-opacity:0.712195"
         d="m 149.024,167 c 20.732,-47.073 -85.3655,-71.7073 0,-140"
         id="path861" />
      <path
         style="opacity:1;fill:none;stroke:#000000;stroke-width:1.15298;stroke-linecap:butt;stroke-linejoin:miter;stroke-miterlimit:4;stroke-dasharray:none;stroke-opacity:0.704878"
         d="m 145.61,167 c 18.292,-46.829 -84.1466,-72.6829 0,-140"
         id="path863" />
      <path
         style="opacity:1;fill:none;stroke:#000000;stroke-width:1.1874;stroke-linecap:butt;stroke-linejoin:miter;stroke-miterlimit:4;stroke-dasharray:none;stroke-opacity:0.697561"
         d="m 142.195,167 c 15.854,-46.585 -82.9267,-73.6585 0,-140"
         id="path865" />
      <path
         style="opacity:1;fill:none;stroke:#000000;stroke-width:1.22182;stroke-linecap:butt;stroke-linejoin:miter;stroke-miterlimit:4;stroke-dasharray:none;stroke-opacity:0.690244"
         d="m 138.78,167 c 13.415,-46.341 -81.7068,-74.6341 0,-140"
         id="path867" />
      <path
         style="opacity:1;fill:none;stroke:#000000;stroke-width:1.25623;stroke-linecap:butt;stroke-linejoin:miter;stroke-miterlimit:4;stroke-dasharray:none;stroke-opacity:0.682927"
         d="m 135.366,167 c 10.975,-46.098 -80.488,-75.6098 0,-140"
         id="path869" />
      <path
         style="opacity:1;fill:none;stroke:#000000;stroke-width:1.29065;stroke-linecap:butt;stroke-linejoin:miter;stroke-miterlimit:4;stroke-dasharray:none;stroke-opacity:0.67561"
         d="m 131.951,167 c 8.537,-45.854 -79.2681,-76.5854 0,-140"
         id="path871" />
      <path
         style="opacity:1;fill:none;stroke:#000000;stroke-width:1.32507;stroke-linecap:butt;stroke-linejoin:miter;stroke-miterlimit:4;stroke-dasharray:none;stroke-opacity:0.668293"
         d="m 128.537,167 c 6.097,-45.61 -78.0492,-77.561 0,-140"
         id="path873" />
      <path
         style="opacity:1;fill:none;stroke:#000000;stroke-width:1.35949;stroke-linecap:butt;stroke-linejoin:miter;stroke-miterlimit:4;stroke-dasharray:none;stroke-opacity:0.660976"
         d="m 125.122,167 c 3.658,-45.366 -76.8293,-78.5366 0,-140"
         id="path875" />
      <path
         style="opacity:1;fill:none;stroke:#000000;stroke-width:1.3939;stroke-linecap:butt;stroke-linejoin:miter;stroke-miterlimit:4;stroke-dasharray:none;stroke-opacity:0.653659"
         d="m 121.707,167 c 1.22,-45.122 -75.6094,-79.5122 0,-140"
         id="path877" />
      <path
         style="opacity:1;fill:none;stroke:#000000;stroke-width:1.42832;stroke-linecap:butt;stroke-linejoin:miter;stroke-miterlimit:4;stroke-dasharray:none;stroke-opacity:0.646341"
         d="m 118.293,167 c -1.22,-44.878 -74.3906,-80.4878 0,-140"
         id="path879" />
      <path
         style="opacity:1;fill:none;stroke:#000000;stroke-width:1.46274;stroke-linecap:butt;stroke-linejoin:miter;stroke-miterlimit:4;stroke-dasharray:none;stroke-opacity:0.639024"
         d="m 114.878,167 c -3.658,-44.634 -73.1707,-81.4634 0,-140"
         id="path881" />
      <path
         style="opacity:1;fill:none;stroke:#000000;stroke-width:1.49716;stroke-linecap:butt;stroke-linejoin:miter;stroke-miterlimit:4;stroke-dasharray:none;stroke-opacity:0.631707"
         d="m 111.463,167 c -6.097,-44.39 -71.9508,-82.439 0,-140"
         id="path883" />
      <path
         style="opacity:1;fill:none;stroke:#000000;stroke-width:1.53157;stroke-linecap:butt;stroke-linejoin:miter;stroke-miterlimit:4;stroke-dasharray:none;stroke-opacity:0.62439"
         d="m 108.049,167 c -8.5368,-44.146 -70.7319,-83.4146 0,-140"
         id="path885" />
      <path
         style="opacity:1;fill:none;stroke:#000000;stroke-width:1.56599;stroke-linecap:butt;stroke-linejoin:miter;stroke-miterlimit:4;stroke-dasharray:none;stroke-opacity:0.617073"
         d="m 104.634,167 c -10.9755,-43.902 -69.512,-84.3902 0,-140"
         id="path887" />
      <path
         style="opacity:1;fill:none;stroke:#000000;stroke-width:1.60041;stroke-linecap:butt;stroke-linejoin:miter;stroke-miterlimit:4;stroke-dasharray:none;stroke-opacity:0.609756"
         d="M 101.22,167 C 87.8049,123.341 32.9268,81.6341 101.22,27"
         id="path889" />
      <path
         style="opacity:1;fill:none;stroke:#000000;stroke-width:1.63483;stroke-linecap:butt;stroke-linejoin:miter;stroke-miterlimit:4;stroke-dasharray:none;stroke-opacity:0.602439"
         d="m 97.8049,167 c -15.8537,-43.415 -67.0732,-86.3415 0,-140"
         id="path891" />
      <path
         style="opacity:1;fill:none;stroke:#000000;stroke-width:1.66924;stroke-linecap:butt;stroke-linejoin:miter;stroke-miterlimit:4;stroke-dasharray:none;stroke-opacity:0.595122"
         d="m 94.3902,167 c -18.2926,-43.171 -65.8536,-87.3171 0,-140"
         id="path893" />
      <path
         style="opacity:1;fill:none;stroke:#000000;stroke-width:1.70366;stroke-linecap:butt;stroke-linejoin:miter;stroke-miterlimit:4;stroke-dasharray:none;stroke-opacity:0.587805"
         d="m 90.9756,167 c -20.7317,-42.927 -64.6341,-88.2927 0,-140"
         id="path895" />
      <path
         style="opacity:1;fill:none;stroke:#000000;stroke-width:1.73808;stroke-linecap:butt;stroke-linejoin:miter;stroke-miterlimit:4;stroke-dasharray:none;stroke-opacity:0.580488"
         d="M 87.561,167 C 64.3902,124.317 24.1463,77.7317 87.561,27"
         id="path897" />
      <path
         style="opacity:1;fill:none;stroke:#000000;stroke-width:1.7725;stroke-linecap:butt;stroke-linejoin:miter;stroke-miterlimit:4;stroke-dasharray:none;stroke-opacity:0.573171"
         d="m 84.1463,167 c -25.6097,-42.439 -62.1951,-90.2439 0,-140"
         id="path899" />
      <path
         style="opacity:1;fill:none;stroke:#000000;stroke-width:1.80691;stroke-linecap:butt;stroke-linejoin:miter;stroke-miterlimit:4;stroke-dasharray:none;stroke-opacity:0.565854"
         d="m 80.7317,167 c -28.0488,-42.195 -60.9756,-91.2195 0,-140"
         id="path901" />
      <path
         style="opacity:1;fill:none;stroke:#000000;stroke-width:1.84133;stroke-linecap:butt;stroke-linejoin:miter;stroke-miterlimit:4;stroke-dasharray:none;stroke-opacity:0.558537"
         d="M 77.3171,167 C 46.8293,125.049 17.561,74.8049 77.3171,27"
         id="path903" />
      <path
         style="opacity:1;fill:none;stroke:#000000;stroke-width:1.87575;stroke-linecap:butt;stroke-linejoin:miter;stroke-miterlimit:4;stroke-dasharray:none;stroke-opacity:0.55122"
         d="m 73.9024,167 c -32.9268,-41.707 -58.5365,-93.1707 0,-140"
         id="path905" />
      <path
         style="opacity:1;fill:none;stroke:#000000;stroke-width:1.91017;stroke-linecap:butt;stroke-linejoin:miter;stroke-miterlimit:4;stroke-dasharray:none;stroke-opacity:0.543902"
         d="M 70.4878,167 C 35.122,125.537 13.1707,72.8537 70.4878,27"
         id="path907" />
      <path
         style="opacity:1;fill:none;stroke:#000000;stroke-width:1.94458;stroke-linecap:butt;stroke-linejoin:miter;stroke-miterlimit:4;stroke-dasharray:none;stroke-opacity:0.536585"
         d="m 67.0732,167 c -37.8049,-41.22 -56.0976,-95.1219 0,-140"
         id="path909" />
      <path
         style="opacity:1;fill:none;stroke:#000000;stroke-width:1.979;stroke-linecap:butt;stroke-linejoin:miter;stroke-miterlimit:4;stroke-dasharray:none;stroke-opacity:0.529268"
         d="M 63.6585,167 C 23.4146,126.024 8.78049,70.9024 63.6585,27"
         id="path911" />
      <path
         style="opacity:1;fill:none;stroke:#000000;stroke-width:2.01342;stroke-linecap:butt;stroke-linejoin:miter;stroke-miterlimit:4;stroke-dasharray:none;stroke-opacity:0.521951"
         d="M 60.2439,167 C 17.561,126.268 6.58537,69.9268 60.2439,27"
         id="path913" />
      <path
         style="opacity:1;fill:none;stroke:#000000;stroke-width:2.04784;stroke-linecap:butt;stroke-linejoin:miter;stroke-miterlimit:4;stroke-dasharray:none;stroke-opacity:0.514634"
         d="m 56.8293,167 c -45.122,-40.488 -52.43906,-98.0488 0,-140"
         id="path915" />
      <path
         style="opacity:1;fill:none;stroke:#000000;stroke-width:2.08225;stroke-linecap:butt;stroke-linejoin:miter;stroke-miterlimit:4;stroke-dasharray:none;stroke-opacity:0.507317"
         d="M 53.4146,167 C 5.85366,126.756 2.19512,67.9756 53.4146,27"
         id="path917" />
    </g>
    <g
       inkscape:label="tekst"
       aria-label="dM"
       id="g1007"
       style="font-size:105.833px;line-height:1.25;font-family:'Showcard Gothic';-inkscape-font-specification:'Showcard Gothic';display:inline;fill:none;stroke:#000000;stroke-width:2.82222;stroke-miterlimit:4;stroke-dasharray:none;stroke-opacity:0.3">
      <path
         id="path1005"
         style="fill:none;stroke:#000000;stroke-width:2.82222;stroke-miterlimit:4;stroke-dasharray:none;stroke-opacity:0.3"
         d="m 178.82484,57.340582 c -0.48231,7.234678 -1.18856,20.429352 -2.11873,39.584022 -0.48231,11.782186 -0.84405,25.045766 -1.0852,39.790726 H 156.9141 l -0.51676,-24.33952 -18.24173,26.25154 -19.68866,-26.04484 -0.51676,24.13282 H 99.346734 C 99.105578,128.82609 98.640492,115.49361 97.951475,96.717899 97.469163,85.900334 96.590666,72.774561 95.315985,57.340582 h 29.610505 c 1.03353,2.514912 2.80774,6.580112 5.32265,12.1956 1.92925,3.996298 4.56474,8.716064 7.90647,14.159297 1.48139,-2.342657 4.203,-7.183001 8.16485,-14.521031 1.41249,-2.721617 1.47469,-7.006817 3.67954,-12.174443 z m -87.539607,40.30749 c 0,12.436758 -3.858495,22.220798 -11.575485,29.352118 -7.958145,7.40693 -19.171896,11.1104 -33.641251,11.1104 -9.301729,0 -16.48473,-0.46509 -21.549005,-1.39526 L 23.124233,98.319864 C 22.676372,88.466922 21.171328,74.328781 20,57.000005 c 7.475834,-1.067976 15.974399,-1.054682 24.104798,-1.054682 14.503807,0 25.855361,3.376183 34.054662,10.128548 8.750515,7.234678 13.125773,17.759412 13.125773,31.574201 z m -21.187271,6.356178 c 0,-5.064272 -1.636415,-8.802188 -4.909246,-11.213747 -2.721617,-1.998149 -6.201152,-2.911097 -10.438606,-2.738842 l -0.723468,32.401019 c 4.409709,-0.27561 8.009822,-1.70532 10.800341,-4.28913 3.513986,-3.20393 5.270979,-7.92369 5.270979,-14.1593 z" />
    </g>
  </g>
</svg>
